<?xml version="1.0" encoding="UTF-8"?>
<svg width="120px" height="120px" viewBox="0 0 120 120" version="1.1" xmlns="http://www.w3.org/2000/svg" xmlns:xlink="http://www.w3.org/1999/xlink">
    <title>4. Icons/1. Decorative/camera</title>
    <g id="4.-Icons/1.-Decorative/camera" stroke="none" stroke-width="1" fill="none" fill-rule="evenodd">
        <path d="M28,27.400391 C26.3,27.400391 25,28.700391 25,30.400391 L25,32.400391 L20,32.400391 C12.8,32.400391 7,38.200391 7,45.400391 L7,79.5 C7,86.7 12.8,92.5 20,92.5 L75.199219,92.5 L100,92.5 C107.2,92.5 113,86.7 113,79.5 L113,45.400391 C113,38.300391 107.2,32.400391 100,32.400391 L39,32.400391 L39,30.400391 C39,28.700391 37.7,27.400391 36,27.400391 L28,27.400391 Z M39,38.400391 L57.400391,38.400391 C53.400391,41.300391 50.2,45.200391 48,49.900391 C41.9,63.000391 46.099219,78.199609 57.199219,86.599609 L24,86.599609 L24,64 C24,56.5 19.6,49.699609 13,46.599609 L13,45.5 C13,41.6 16.1,38.5 20,38.5 L33,38.5 L33,79.599609 C33,81.299609 34.3,82.599609 36,82.599609 C37.7,82.599609 39,81.299609 39,79.599609 L39,38.400391 Z M75.300781,38.5 C78.800781,38.5 82.200391,39.300781 85.400391,40.800781 C91.200391,43.500781 95.600781,48.300781 97.80078,54.300781 C100.00078,60.300781 99.7,66.799609 97,72.599609 C93,81.099609 84.399219,86.599609 75.199219,86.599609 C71.699219,86.599609 68.299609,85.800781 65.099609,84.300781 C53.099609,78.700781 47.9,64.400391 53.5,52.400391 C57.4,44.000391 66.000781,38.5 75.300781,38.5 Z M92.900391,38.5 L99.900391,38.5 C103.80039,38.5 106.900391,41.6 106.900391,45.5 L106.900391,79.599609 L107,79.599609 C107,83.499609 103.9,86.599609 100,86.599609 L93.099609,86.599609 C96.99961,83.699609 100.20078,79.800781 102.30078,75.300781 C105.70078,68.000781 106.00078,59.900391 103.30078,52.400391 C101.30078,46.800391 97.70039,42 92.900391,38.5 Z M75.199219,42.5 C64.199219,42.5 55.199219,51.5 55.199219,62.5 C55.199219,73.5 64.199219,82.5 75.199219,82.5 C86.199219,82.5 95.199219,73.5 95.199219,62.5 C95.199219,51.5 86.199219,42.5 75.199219,42.5 Z M75.886719,44.949219 C78.174219,45.049219 80.449609,45.599609 82.599609,46.599609 L80.099609,52 C77.299609,50.7 74.099219,50.499609 71.199219,51.599609 L69.099609,46 C71.299609,45.2 73.599219,44.849219 75.886719,44.949219 Z M64.900391,48.199219 L68.400391,53.099609 C66.800391,54.199609 65.499609,55.799609 64.599609,57.599609 L59.199219,55.099609 C60.499219,52.299609 62.400391,49.999219 64.900391,48.199219 Z M85.199219,69.5 C86.899219,69.5 88.199219,70.8 88.199219,72.5 C88.199219,74.2 86.799219,75.5 85.199219,75.5 C83.499219,75.5 82.199219,74.2 82.199219,72.5 C82.199219,70.8 83.499219,69.5 85.199219,69.5 Z" id="icon" fill="#151515"></path>
    </g>
</svg>