<?xml version="1.0" encoding="UTF-8"?>
<svg width="24px" height="24px" viewBox="0 0 24 24" version="1.1" xmlns="http://www.w3.org/2000/svg" xmlns:xlink="http://www.w3.org/1999/xlink">
    <title>4. Icons/cart</title>
    <g id="4.-Icons/cart" stroke="none" stroke-width="1" fill="none" fill-rule="evenodd">
        <path d="M7,19 C5.9,19 5.01,19.9 5.01,21 C5.01,22.1 5.9,23 7,23 C8.1,23 9,22.1 9,21 C9,19.9 8.1,19 7,19 Z M1,4 C1,4.55 1.45,5 2,5 L3,5 L6.6,12.59 L5.25,15.03 C4.52,16.37 5.48,18 7,18 L18,18 C18.55,18 19,17.55 19,17 C19,16.45 18.55,16 18,16 L7,16 L8.1,14 L15.55,14 C16.3,14 16.96,13.59 17.3,12.97 L20.88,6.48 C21.25,5.82 20.77,5 20.01,5 L5.21,5 L4.54,3.57 C4.38,3.22 4.02,3 3.64,3 L2,3 C1.45,3 1,3.45 1,4 Z M17,19 C15.9,19 15.01,19.9 15.01,21 C15.01,22.1 15.9,23 17,23 C18.1,23 19,22.1 19,21 C19,19.9 18.1,19 17,19 Z" id="icon" fill="#151515"></path>
    </g>
</svg>