<svg width="115" height="35" viewBox="0 0 115 35" fill="none" xmlns="http://www.w3.org/2000/svg">
<path d="M72.75 2H47.75C39.3277 2 32.5 8.82766 32.5 17.25V17.5C32.5 25.9223 39.3277 32.75 47.75 32.75H72.75C81.1723 32.75 88 25.9223 88 17.5V17.25C88 8.82766 81.1723 2 72.75 2Z" stroke="#01172F" stroke-width="3" stroke-miterlimit="10"/>
<path d="M47.5 23.25C50.9518 23.25 53.75 20.4518 53.75 17C53.75 13.5482 50.9518 10.75 47.5 10.75C44.0482 10.75 41.25 13.5482 41.25 17C41.25 20.4518 44.0482 23.25 47.5 23.25Z" fill="#01172F"/>
<path d="M12 20.2727C12.9091 20.2727 13.6818 19.9545 14.3182 19.3182C14.9545 18.6818 15.2727 17.9091 15.2727 17C15.2727 16.0909 14.9545 15.3182 14.3182 14.6818C13.6818 14.0455 12.9091 13.7273 12 13.7273C11.0909 13.7273 10.3182 14.0455 9.68182 14.6818C9.04545 15.3182 8.72727 16.0909 8.72727 17C8.72727 17.9091 9.04545 18.6818 9.68182 19.3182C10.3182 19.9545 11.0909 20.2727 12 20.2727ZM12 22.4545C10.4909 22.4545 9.20455 21.9227 8.14091 20.8591C7.07727 19.7955 6.54545 18.5091 6.54545 17C6.54545 15.4909 7.07727 14.2045 8.14091 13.1409C9.20455 12.0773 10.4909 11.5455 12 11.5455C13.5091 11.5455 14.7955 12.0773 15.8591 13.1409C16.9227 14.2045 17.4545 15.4909 17.4545 17C17.4545 18.5091 16.9227 19.7955 15.8591 20.8591C14.7955 21.9227 13.5091 22.4545 12 22.4545ZM4.36364 18.0909H0V15.9091H4.36364V18.0909ZM24 18.0909H19.6364V15.9091H24V18.0909ZM10.9091 9.36364V5H13.0909V9.36364H10.9091ZM10.9091 29V24.6364H13.0909V29H10.9091ZM5.89091 12.3636L3.13636 9.71818L4.69091 8.10909L7.30909 10.8364L5.89091 12.3636ZM19.3091 25.8909L16.6636 23.1364L18.1091 21.6364L20.8636 24.2818L19.3091 25.8909ZM16.6364 10.8909L19.2818 8.13636L20.8909 9.69091L18.1636 12.3091L16.6364 10.8909ZM3.10909 24.3091L5.86364 21.6636L7.36364 23.1091L4.71818 25.8636L3.10909 24.3091Z" fill="#01172F"/>
<path d="M106 26C103.5 26 101.375 25.125 99.625 23.375C97.875 21.625 97 19.5 97 17C97 14.5 97.875 12.375 99.625 10.625C101.375 8.875 103.5 8 106 8C106.233 8 106.463 8.00833 106.688 8.025C106.913 8.04167 107.133 8.06667 107.35 8.1C106.667 8.58333 106.121 9.2125 105.713 9.9875C105.304 10.7625 105.1 11.6 105.1 12.5C105.1 14 105.625 15.275 106.675 16.325C107.725 17.375 109 17.9 110.5 17.9C111.417 17.9 112.258 17.6958 113.025 17.2875C113.792 16.8792 114.417 16.3333 114.9 15.65C114.933 15.8667 114.958 16.0875 114.975 16.3125C114.992 16.5375 115 16.7667 115 17C115 19.5 114.125 21.625 112.375 23.375C110.625 25.125 108.5 26 106 26ZM106 24C107.467 24 108.783 23.5958 109.95 22.7875C111.117 21.9792 111.967 20.925 112.5 19.625C112.167 19.7083 111.833 19.775 111.5 19.825C111.167 19.875 110.833 19.9 110.5 19.9C108.45 19.9 106.704 19.1792 105.262 17.7375C103.821 16.2958 103.1 14.55 103.1 12.5C103.1 12.1667 103.125 11.8333 103.175 11.5C103.225 11.1667 103.292 10.8333 103.375 10.5C102.075 11.0333 101.021 11.8833 100.213 13.05C99.4042 14.2167 99 15.5333 99 17C99 18.9333 99.6833 20.5833 101.05 21.95C102.417 23.3167 104.067 24 106 24Z" fill="#01172F"/>
</svg>
