<?xml version="1.0" encoding="UTF-8"?>
<svg xmlns="http://www.w3.org/2000/svg" version="1.1" viewBox="0 0 24 24">
  <defs>
    <style>
      .cls-1 {
        fill: #01172f;
      }
    </style>
  </defs>
  <!-- Generator: Adobe Illustrator 28.7.2, SVG Export Plug-In . SVG Version: 1.2.0 Build 154)  -->
  <g>
    <g id="Layer_1">
      <g id="Layer_1-2" data-name="Layer_1">
        <path class="cls-1" d="M12,22c-1.4,0-2.7-.3-3.9-.8s-2.3-1.2-3.2-2.2-1.6-2-2.2-3.2-.8-2.5-.8-3.9.3-2.7.8-3.9,1.2-2.3,2.2-3.2,2-1.6,3.2-2.2,2.5-.8,3.9-.8,2.7.3,3.9.8c1.2.5,2.3,1.2,3.2,2.2s1.6,2,2.2,3.2.8,2.5.8,3.9-.3,2.7-.8,3.9c-.5,1.2-1.2,2.3-2.2,3.2s-2,1.6-3.2,2.2-2.5.8-3.9.8ZM12,19.9c.4-.6.8-1.2,1.1-1.9s.6-1.3.8-2.1h-3.8c.2.7.5,1.4.8,2.1s.7,1.3,1.1,1.9ZM9.4,19.5c-.3-.6-.6-1.1-.8-1.7s-.4-1.2-.6-1.8h-3c.5.8,1.1,1.6,1.8,2.2s1.6,1.1,2.5,1.4h.1ZM14.6,19.5c.9-.3,1.8-.8,2.5-1.4s1.3-1.3,1.8-2.2h-3c-.2.6-.3,1.2-.6,1.8-.2.6-.5,1.2-.8,1.7h.1ZM4.3,14h3.4c0-.3,0-.7,0-1s0-.7,0-1v-1c0-.3,0-.7,0-1h-3.4c0,.3,0,.7-.2,1s0,.7,0,1v1c0,.3,0,.7.2,1ZM9.7,14h4.7c0-.3,0-.7.1-1s0-.7,0-1v-1c0-.3,0-.7-.1-1h-4.7c0,.3,0,.7-.1,1s0,.7,0,1v1c0,.3,0,.7.1,1ZM16.4,14h3.4c0-.3.1-.7.2-1s0-.7,0-1v-1c0-.3-.1-.7-.2-1h-3.4c0,.3,0,.7.1,1s0,.7,0,1v1c0,.3,0,.7-.1,1ZM16,8h3c-.5-.8-1.1-1.6-1.8-2.2s-1.6-1.1-2.5-1.4c.3.6.6,1.1.8,1.7s.4,1.2.6,1.8h-.1ZM10.1,8h3.8c-.2-.7-.5-1.4-.8-2.1s-.7-1.3-1.1-1.9c-.4.6-.8,1.2-1.1,1.9s-.6,1.3-.8,2.1ZM5.1,8h3c.2-.6.3-1.2.6-1.8s.5-1.2.8-1.7c-.9.3-1.8.8-2.5,1.4s-1.3,1.3-1.8,2.2h-.1Z"/>
      </g>
    </g>
  </g>
</svg>