<svg width="756" height="114" viewBox="0 0 756 114" fill="none" xmlns="http://www.w3.org/2000/svg">
<path d="M131.961 42.9609V91H121.906L120.145 84.8555H119.457C118.426 86.4883 117.137 87.8203 115.59 88.8516C114.043 89.8828 112.339 90.6419 110.477 91.1289C108.615 91.6159 106.681 91.8594 104.676 91.8594C101.238 91.8594 98.2448 91.2578 95.6953 90.0547C93.1458 88.8229 91.1549 86.918 89.7227 84.3398C88.319 81.7617 87.6172 78.4102 87.6172 74.2852V42.9609H100.723V71.0195C100.723 74.457 101.339 77.0495 102.57 78.7969C103.802 80.5443 105.764 81.418 108.457 81.418C111.121 81.418 113.212 80.8164 114.73 79.6133C116.249 78.3815 117.309 76.5911 117.91 74.2422C118.54 71.8646 118.855 68.9714 118.855 65.5625V42.9609H131.961ZM174.031 66.4648L158.562 42.9609H173.429L182.753 58.2578L192.164 42.9609H207.031L191.39 66.4648L207.761 91H192.851L182.753 74.543L172.613 91H157.746L174.031 66.4648ZM260.358 42.0586C261.017 42.0586 261.776 42.1016 262.636 42.1875C263.524 42.2448 264.24 42.3307 264.784 42.4453L263.796 54.7344C263.366 54.5911 262.75 54.4909 261.948 54.4336C261.175 54.3477 260.502 54.3047 259.929 54.3047C258.239 54.3047 256.592 54.5195 254.987 54.9492C253.412 55.3789 251.994 56.0807 250.733 57.0547C249.473 58 248.47 59.2604 247.726 60.8359C247.009 62.3828 246.651 64.2878 246.651 66.5508V91H233.546V42.9609H243.472L245.405 51.0391H246.05C246.995 49.4062 248.17 47.9167 249.573 46.5703C251.006 45.1953 252.624 44.1068 254.429 43.3047C256.262 42.474 258.239 42.0586 260.358 42.0586ZM335.643 66.8945C335.643 70.9049 335.099 74.457 334.01 77.5508C332.95 80.6445 331.389 83.2656 329.327 85.4141C327.293 87.5339 324.829 89.138 321.936 90.2266C319.072 91.3151 315.835 91.8594 312.225 91.8594C308.845 91.8594 305.737 91.3151 302.901 90.2266C300.094 89.138 297.644 87.5339 295.553 85.4141C293.491 83.2656 291.887 80.6445 290.741 77.5508C289.624 74.457 289.065 70.9049 289.065 66.8945C289.065 61.5664 290.01 57.0547 291.901 53.3594C293.792 49.6641 296.484 46.8568 299.979 44.9375C303.474 43.0182 307.642 42.0586 312.483 42.0586C316.98 42.0586 320.962 43.0182 324.428 44.9375C327.923 46.8568 330.659 49.6641 332.635 53.3594C334.641 57.0547 335.643 61.5664 335.643 66.8945ZM302.428 66.8945C302.428 70.0456 302.772 72.6953 303.46 74.8438C304.147 76.9922 305.221 78.6107 306.682 79.6992C308.143 80.7878 310.048 81.332 312.397 81.332C314.717 81.332 316.594 80.7878 318.026 79.6992C319.487 78.6107 320.547 76.9922 321.206 74.8438C321.893 72.6953 322.237 70.0456 322.237 66.8945C322.237 63.7148 321.893 61.0794 321.206 58.9883C320.547 56.8685 319.487 55.2786 318.026 54.2188C316.565 53.1589 314.66 52.6289 312.311 52.6289C308.845 52.6289 306.324 53.8177 304.749 56.1953C303.202 58.5729 302.428 62.1393 302.428 66.8945ZM380.162 91.8594C374.805 91.8594 370.437 89.7682 367.057 85.5859C363.705 81.375 362.029 75.2018 362.029 67.0664C362.029 58.8451 363.734 52.6289 367.143 48.418C370.551 44.1784 375.006 42.0586 380.506 42.0586C382.798 42.0586 384.817 42.3737 386.565 43.0039C388.312 43.6341 389.816 44.4792 391.076 45.5391C392.365 46.599 393.454 47.7878 394.342 49.1055H394.772C394.6 48.1888 394.385 46.8424 394.127 45.0664C393.898 43.2617 393.783 41.4141 393.783 39.5234V24.1406H406.932V91H396.877L394.342 84.7695H393.783C392.953 86.0872 391.907 87.2904 390.647 88.3789C389.415 89.4388 387.94 90.2839 386.221 90.9141C384.502 91.5443 382.482 91.8594 380.162 91.8594ZM384.76 81.418C388.341 81.418 390.861 80.3581 392.322 78.2383C393.812 76.0898 394.6 72.8672 394.686 68.5703V67.1523C394.686 62.4831 393.969 58.9167 392.537 56.4531C391.105 53.9609 388.441 52.7148 384.545 52.7148C381.652 52.7148 379.389 53.9609 377.756 56.4531C376.123 58.9453 375.307 62.5404 375.307 67.2383C375.307 71.9362 376.123 75.474 377.756 77.8516C379.417 80.2292 381.752 81.418 384.76 81.418ZM465.931 42.0586C466.59 42.0586 467.349 42.1016 468.209 42.1875C469.097 42.2448 469.813 42.3307 470.357 42.4453L469.369 54.7344C468.939 54.5911 468.323 54.4909 467.521 54.4336C466.748 54.3477 466.074 54.3047 465.502 54.3047C463.811 54.3047 462.164 54.5195 460.56 54.9492C458.985 55.3789 457.567 56.0807 456.306 57.0547C455.046 58 454.043 59.2604 453.298 60.8359C452.582 62.3828 452.224 64.2878 452.224 66.5508V91H439.119V42.9609H449.045L450.978 51.0391H451.623C452.568 49.4062 453.742 47.9167 455.146 46.5703C456.578 45.1953 458.197 44.1068 460.002 43.3047C461.835 42.474 463.811 42.0586 465.931 42.0586ZM510.665 42.9609V91H497.56V42.9609H510.665ZM504.134 24.1406C506.082 24.1406 507.758 24.599 509.161 25.5156C510.565 26.4036 511.267 28.0794 511.267 30.543C511.267 32.9779 510.565 34.668 509.161 35.6133C507.758 36.5299 506.082 36.9883 504.134 36.9883C502.157 36.9883 500.467 36.5299 499.064 35.6133C497.689 34.668 497.001 32.9779 497.001 30.543C497.001 28.0794 497.689 26.4036 499.064 25.5156C500.467 24.599 502.157 24.1406 504.134 24.1406ZM556.989 112.141C550.286 112.141 545.158 110.966 541.606 108.617C538.083 106.297 536.321 103.031 536.321 98.8203C536.321 95.9271 537.223 93.5065 539.028 91.5586C540.833 89.6107 543.482 88.2214 546.977 87.3906C545.631 86.8177 544.456 85.8867 543.454 84.5977C542.451 83.2799 541.95 81.8906 541.95 80.4297C541.95 78.5964 542.48 77.0781 543.54 75.875C544.6 74.6432 546.132 73.4401 548.137 72.2656C545.616 71.1771 543.611 69.4297 542.122 67.0234C540.661 64.6172 539.93 61.7812 539.93 58.5156C539.93 55.0208 540.689 52.056 542.208 49.6211C543.755 47.1576 545.989 45.2812 548.911 43.9922C551.861 42.7031 555.442 42.0586 559.653 42.0586C560.541 42.0586 561.572 42.1159 562.747 42.2305C563.921 42.3451 564.995 42.474 565.969 42.6172C566.972 42.7604 567.645 42.875 567.989 42.9609H584.747V49.6211L577.227 51.5547C577.915 52.6146 578.43 53.7461 578.774 54.9492C579.118 56.1523 579.29 57.4271 579.29 58.7734C579.29 63.9297 577.485 67.9544 573.876 70.8477C570.295 73.7122 565.311 75.1445 558.922 75.1445C557.404 75.0586 555.972 74.944 554.626 74.8008C553.967 75.3164 553.465 75.8607 553.122 76.4336C552.778 77.0065 552.606 77.6081 552.606 78.2383C552.606 78.8685 552.864 79.3984 553.38 79.8281C553.924 80.2292 554.726 80.5443 555.786 80.7734C556.874 80.974 558.221 81.0742 559.825 81.0742H567.989C573.26 81.0742 577.27 82.2057 580.02 84.4688C582.799 86.7318 584.188 90.0547 584.188 94.4375C584.188 100.052 581.839 104.406 577.141 107.5C572.472 110.594 565.755 112.141 556.989 112.141ZM557.547 103.59C560.67 103.59 563.348 103.289 565.583 102.688C567.846 102.115 569.579 101.284 570.782 100.195C571.985 99.1354 572.587 97.8607 572.587 96.3711C572.587 95.168 572.228 94.2083 571.512 93.4922C570.825 92.8047 569.765 92.3177 568.333 92.0312C566.929 91.7448 565.124 91.6016 562.919 91.6016H556.13C554.525 91.6016 553.079 91.8594 551.79 92.375C550.529 92.8906 549.527 93.6068 548.782 94.5234C548.037 95.4688 547.665 96.5573 547.665 97.7891C547.665 99.5938 548.524 101.012 550.243 102.043C551.99 103.074 554.425 103.59 557.547 103.59ZM559.653 67.1523C562.116 67.1523 563.921 66.3932 565.067 64.875C566.213 63.3568 566.786 61.2943 566.786 58.6875C566.786 55.7943 566.184 53.6315 564.981 52.1992C563.807 50.7383 562.031 50.0078 559.653 50.0078C557.247 50.0078 555.442 50.7383 554.239 52.1992C553.036 53.6315 552.434 55.7943 552.434 58.6875C552.434 61.2943 553.021 63.3568 554.196 64.875C555.399 66.3932 557.218 67.1523 559.653 67.1523ZM654.832 66.8945C654.832 70.9049 654.288 74.457 653.199 77.5508C652.139 80.6445 650.578 83.2656 648.516 85.4141C646.482 87.5339 644.018 89.138 641.125 90.2266C638.261 91.3151 635.024 91.8594 631.414 91.8594C628.034 91.8594 624.926 91.3151 622.09 90.2266C619.283 89.138 616.833 87.5339 614.742 85.4141C612.68 83.2656 611.076 80.6445 609.93 77.5508C608.813 74.457 608.254 70.9049 608.254 66.8945C608.254 61.5664 609.199 57.0547 611.09 53.3594C612.981 49.6641 615.673 46.8568 619.168 44.9375C622.663 43.0182 626.831 42.0586 631.672 42.0586C636.169 42.0586 640.151 43.0182 643.617 44.9375C647.112 46.8568 649.848 49.6641 651.824 53.3594C653.83 57.0547 654.832 61.5664 654.832 66.8945ZM621.617 66.8945C621.617 70.0456 621.961 72.6953 622.649 74.8438C623.336 76.9922 624.41 78.6107 625.871 79.6992C627.332 80.7878 629.237 81.332 631.586 81.332C633.906 81.332 635.783 80.7878 637.215 79.6992C638.676 78.6107 639.736 76.9922 640.395 74.8438C641.082 72.6953 641.426 70.0456 641.426 66.8945C641.426 63.7148 641.082 61.0794 640.395 58.9883C639.736 56.8685 638.676 55.2786 637.215 54.2188C635.754 53.1589 633.849 52.6289 631.5 52.6289C628.034 52.6289 625.513 53.8177 623.938 56.1953C622.391 58.5729 621.617 62.1393 621.617 66.8945Z" fill="#153180"/>
<path d="M5.45462 51C5.45462 37.4439 16.444 26.4545 30 26.4545C43.5561 26.4545 54.5455 37.4439 54.5455 51H60C60 34.4314 46.5686 21 30 21C13.4315 21 7.88669e-05 34.4314 7.88669e-05 51H5.45462Z" fill="#153180"/>
<path d="M5.45454 91.3357L5.45462 51H7.88669e-05L0 91.3357H5.45454Z" fill="#153180"/>
<path d="M15.5454 51.409C15.5454 43.5013 21.9559 37.0909 29.8636 37.0909C37.7713 37.0909 44.1817 43.5013 44.1817 51.409H49.6363C49.6363 40.4889 40.7837 31.6364 29.8636 31.6364C19.0801 31.6364 10.3128 40.2687 10.095 51H10.0908V91.3357H15.5453L15.5454 51.409Z" fill="#153180"/>
<path d="M29.7276 47.1819C27.4682 47.1819 25.6367 49.0135 25.6367 51.2728L25.6366 91.3357H20.1821V51H20.186C20.3304 45.8543 24.547 41.7274 29.7276 41.7274C34.9994 41.7274 39.273 46.001 39.273 51.2728H33.8185C33.8185 49.0135 31.9869 47.1819 29.7276 47.1819Z" fill="#153180"/>
<path fill-rule="evenodd" clip-rule="evenodd" d="M719.996 25.5692L710.348 20L704.999 29.27H693.778V40.7072L684 46.352L689.569 56L684 65.6462L693.778 71.2928V81.9218H704.533L710.348 92L719.996 86.4308L729.644 92L735.462 81.92H746.554V71.102L756 65.6462L750.429 56L756 46.3538L746.554 40.8998V29.2718H734.999L729.644 20L719.996 25.5692ZM733.343 45.7742L737.401 49.8908L716.827 70.5908L704.524 58.1168L708.563 54.0524L716.819 62.2982L733.343 45.7742Z" fill="#0095F6"/>
</svg>
