<svg width="660" height="90" viewBox="0 0 660 90" fill="none" xmlns="http://www.w3.org/2000/svg">
<path d="M5.45462 30C5.45462 16.4439 16.444 5.45454 30 5.45454C43.5561 5.45454 54.5455 16.4439 54.5455 30H60C60 13.4314 46.5686 0 30 0C13.4315 0 7.88669e-05 13.4314 7.88669e-05 30H5.45462Z" fill="#2962FF"/>
<path d="M5.45462 30C5.45462 16.4439 16.444 5.45454 30 5.45454C43.5561 5.45454 54.5455 16.4439 54.5455 30H60C60 13.4314 46.5686 0 30 0C13.4315 0 7.88669e-05 13.4314 7.88669e-05 30H5.45462Z" fill="black" fill-opacity="0.5"/>
<path d="M5.45454 70.3357L5.45462 30H7.88669e-05L0 70.3357H5.45454Z" fill="#2962FF"/>
<path d="M5.45454 70.3357L5.45462 30H7.88669e-05L0 70.3357H5.45454Z" fill="black" fill-opacity="0.5"/>
<path d="M15.5454 30.409C15.5454 22.5013 21.9559 16.0909 29.8636 16.0909C37.7713 16.0909 44.1817 22.5013 44.1817 30.409H49.6363C49.6363 19.4889 40.7837 10.6364 29.8636 10.6364C19.0801 10.6364 10.3128 19.2687 10.095 30H10.0908V70.3357H15.5453L15.5454 30.409Z" fill="#2962FF"/>
<path d="M15.5454 30.409C15.5454 22.5013 21.9559 16.0909 29.8636 16.0909C37.7713 16.0909 44.1817 22.5013 44.1817 30.409H49.6363C49.6363 19.4889 40.7837 10.6364 29.8636 10.6364C19.0801 10.6364 10.3128 19.2687 10.095 30H10.0908V70.3357H15.5453L15.5454 30.409Z" fill="black" fill-opacity="0.5"/>
<path d="M29.7276 26.1819C27.4682 26.1819 25.6367 28.0135 25.6367 30.2728L25.6366 70.3357H20.1821V30H20.186C20.3304 24.8543 24.547 20.7274 29.7276 20.7274C34.9994 20.7274 39.273 25.001 39.273 30.2728H33.8185C33.8185 28.0135 31.9869 26.1819 29.7276 26.1819Z" fill="#2962FF"/>
<path d="M29.7276 26.1819C27.4682 26.1819 25.6367 28.0135 25.6367 30.2728L25.6366 70.3357H20.1821V30H20.186C20.3304 24.8543 24.547 20.7274 29.7276 20.7274C34.9994 20.7274 39.273 25.001 39.273 30.2728H33.8185C33.8185 28.0135 31.9869 26.1819 29.7276 26.1819Z" fill="black" fill-opacity="0.5"/>
<path d="M121.906 68L120.145 61.8555H119.457C118.053 64.0898 116.062 65.8229 113.484 67.0547C110.906 68.2578 107.97 68.8594 104.676 68.8594C99.0326 68.8594 94.7786 67.3555 91.9141 64.3477C89.0495 61.3112 87.6172 56.957 87.6172 51.2852V19.9609H100.723V48.0195C100.723 51.4857 101.339 54.0924 102.57 55.8398C103.802 57.5586 105.764 58.418 108.457 58.418C112.124 58.418 114.773 57.2005 116.406 54.7656C118.039 52.3021 118.855 48.2344 118.855 42.5625V19.9609H131.961V68H121.906ZM174.031 43.4648L158.562 19.9609H173.429L182.753 35.2578L192.164 19.9609H207.031L191.39 43.4648L207.761 68H192.851L182.753 51.543L172.613 68H157.746L174.031 43.4648ZM260.358 19.0586C262.134 19.0586 263.61 19.1875 264.784 19.4453L263.796 31.7344C262.736 31.4479 261.447 31.3047 259.929 31.3047C255.746 31.3047 252.481 32.3789 250.132 34.5273C247.812 36.6758 246.651 39.6836 246.651 43.5508V68H233.546V19.9609H243.472L245.405 28.0391H246.05C247.539 25.3464 249.545 23.1836 252.065 21.5508C254.615 19.8893 257.379 19.0586 260.358 19.0586ZM302.428 43.8945C302.428 48.6497 303.202 52.2448 304.749 54.6797C306.324 57.1146 308.874 58.332 312.397 58.332C315.892 58.332 318.398 57.1289 319.917 54.7227C321.463 52.2878 322.237 48.6784 322.237 43.8945C322.237 39.1393 321.463 35.5729 319.917 33.1953C318.37 30.8177 315.835 29.6289 312.311 29.6289C308.816 29.6289 306.295 30.8177 304.749 33.1953C303.202 35.5443 302.428 39.1107 302.428 43.8945ZM335.643 43.8945C335.643 51.7148 333.581 57.8307 329.456 62.2422C325.331 66.6536 319.587 68.8594 312.225 68.8594C307.613 68.8594 303.545 67.8568 300.022 65.8516C296.499 63.8177 293.792 60.9102 291.901 57.1289C290.01 53.3477 289.065 48.9362 289.065 43.8945C289.065 36.0456 291.113 29.944 295.21 25.5898C299.306 21.2357 305.064 19.0586 312.483 19.0586C317.095 19.0586 321.163 20.0612 324.686 22.0664C328.21 24.0716 330.917 26.9505 332.807 30.7031C334.698 34.4557 335.643 38.8529 335.643 43.8945ZM380.162 68.8594C374.519 68.8594 370.079 66.668 366.842 62.2852C363.634 57.9023 362.029 51.8294 362.029 44.0664C362.029 36.1888 363.662 30.0586 366.928 25.6758C370.222 21.2643 374.748 19.0586 380.506 19.0586C386.55 19.0586 391.162 21.4076 394.342 26.1055H394.772C394.113 22.5247 393.783 19.3307 393.783 16.5234V1.14062H406.932V68H396.877L394.342 61.7695H393.783C390.804 66.4961 386.264 68.8594 380.162 68.8594ZM384.76 58.418C388.111 58.418 390.561 57.444 392.107 55.4961C393.683 53.5482 394.542 50.2396 394.686 45.5703V44.1523C394.686 38.9961 393.884 35.3008 392.279 33.0664C390.704 30.832 388.126 29.7148 384.545 29.7148C381.623 29.7148 379.346 30.9609 377.713 33.4531C376.109 35.9167 375.307 39.5117 375.307 44.2383C375.307 48.9648 376.123 52.5169 377.756 54.8945C379.389 57.2435 381.723 58.418 384.76 58.418ZM465.931 19.0586C467.707 19.0586 469.183 19.1875 470.357 19.4453L469.369 31.7344C468.309 31.4479 467.02 31.3047 465.502 31.3047C461.319 31.3047 458.054 32.3789 455.705 34.5273C453.384 36.6758 452.224 39.6836 452.224 43.5508V68H439.119V19.9609H449.045L450.978 28.0391H451.623C453.112 25.3464 455.117 23.1836 457.638 21.5508C460.188 19.8893 462.952 19.0586 465.931 19.0586ZM497.001 7.54297C497.001 3.27474 499.379 1.14062 504.134 1.14062C508.889 1.14062 511.267 3.27474 511.267 7.54297C511.267 9.57682 510.665 11.1667 509.462 12.3125C508.288 13.4297 506.512 13.9883 504.134 13.9883C499.379 13.9883 497.001 11.8398 497.001 7.54297ZM510.665 68H497.56V19.9609H510.665V68ZM584.747 19.9609V26.6211L577.227 28.5547C578.602 30.7031 579.29 33.1094 579.29 35.7734C579.29 40.9297 577.485 44.9544 573.876 47.8477C570.295 50.7122 565.311 52.1445 558.922 52.1445L556.559 52.0156L554.626 51.8008C553.279 52.832 552.606 53.9779 552.606 55.2383C552.606 57.1289 555.012 58.0742 559.825 58.0742H567.989C573.26 58.0742 577.27 59.2057 580.02 61.4688C582.799 63.7318 584.188 67.0547 584.188 71.4375C584.188 77.0521 581.839 81.4062 577.141 84.5C572.472 87.5938 565.755 89.1406 556.989 89.1406C550.286 89.1406 545.158 87.9661 541.606 85.6172C538.083 83.2969 536.321 80.0312 536.321 75.8203C536.321 72.9271 537.223 70.5065 539.028 68.5586C540.833 66.6107 543.482 65.2214 546.977 64.3906C545.631 63.8177 544.456 62.8867 543.454 61.5977C542.451 60.2799 541.95 58.8906 541.95 57.4297C541.95 55.5964 542.48 54.0781 543.54 52.875C544.6 51.6432 546.132 50.4401 548.137 49.2656C545.616 48.1771 543.611 46.4297 542.122 44.0234C540.661 41.6172 539.93 38.7812 539.93 35.5156C539.93 30.2734 541.635 26.2201 545.044 23.3555C548.452 20.4909 553.322 19.0586 559.653 19.0586C560.999 19.0586 562.589 19.1875 564.422 19.4453C566.284 19.6745 567.473 19.8464 567.989 19.9609H584.747ZM547.665 74.7891C547.665 76.5938 548.524 78.0117 550.243 79.043C551.99 80.0742 554.425 80.5898 557.547 80.5898C562.245 80.5898 565.926 79.9453 568.59 78.6562C571.255 77.3672 572.587 75.6055 572.587 73.3711C572.587 71.5664 571.799 70.3203 570.223 69.6328C568.648 68.9453 566.213 68.6016 562.919 68.6016H556.13C553.723 68.6016 551.704 69.1602 550.071 70.2773C548.467 71.4232 547.665 72.9271 547.665 74.7891ZM552.434 35.6875C552.434 38.2943 553.021 40.3568 554.196 41.875C555.399 43.3932 557.218 44.1523 559.653 44.1523C562.116 44.1523 563.921 43.3932 565.067 41.875C566.213 40.3568 566.786 38.2943 566.786 35.6875C566.786 29.901 564.408 27.0078 559.653 27.0078C554.84 27.0078 552.434 29.901 552.434 35.6875ZM621.617 43.8945C621.617 48.6497 622.391 52.2448 623.938 54.6797C625.513 57.1146 628.063 58.332 631.586 58.332C635.081 58.332 637.587 57.1289 639.106 54.7227C640.652 52.2878 641.426 48.6784 641.426 43.8945C641.426 39.1393 640.652 35.5729 639.106 33.1953C637.559 30.8177 635.024 29.6289 631.5 29.6289C628.005 29.6289 625.484 30.8177 623.938 33.1953C622.391 35.5443 621.617 39.1107 621.617 43.8945ZM654.832 43.8945C654.832 51.7148 652.77 57.8307 648.645 62.2422C644.52 66.6536 638.776 68.8594 631.414 68.8594C626.802 68.8594 622.734 67.8568 619.211 65.8516C615.688 63.8177 612.981 60.9102 611.09 57.1289C609.199 53.3477 608.254 48.9362 608.254 43.8945C608.254 36.0456 610.302 29.944 614.399 25.5898C618.495 21.2357 624.253 19.0586 631.672 19.0586C636.284 19.0586 640.352 20.0612 643.875 22.0664C647.399 24.0716 650.106 26.9505 651.996 30.7031C653.887 34.4557 654.832 38.8529 654.832 43.8945Z" fill="#2962FF"/>
<path d="M121.906 68L120.145 61.8555H119.457C118.053 64.0898 116.062 65.8229 113.484 67.0547C110.906 68.2578 107.97 68.8594 104.676 68.8594C99.0326 68.8594 94.7786 67.3555 91.9141 64.3477C89.0495 61.3112 87.6172 56.957 87.6172 51.2852V19.9609H100.723V48.0195C100.723 51.4857 101.339 54.0924 102.57 55.8398C103.802 57.5586 105.764 58.418 108.457 58.418C112.124 58.418 114.773 57.2005 116.406 54.7656C118.039 52.3021 118.855 48.2344 118.855 42.5625V19.9609H131.961V68H121.906ZM174.031 43.4648L158.562 19.9609H173.429L182.753 35.2578L192.164 19.9609H207.031L191.39 43.4648L207.761 68H192.851L182.753 51.543L172.613 68H157.746L174.031 43.4648ZM260.358 19.0586C262.134 19.0586 263.61 19.1875 264.784 19.4453L263.796 31.7344C262.736 31.4479 261.447 31.3047 259.929 31.3047C255.746 31.3047 252.481 32.3789 250.132 34.5273C247.812 36.6758 246.651 39.6836 246.651 43.5508V68H233.546V19.9609H243.472L245.405 28.0391H246.05C247.539 25.3464 249.545 23.1836 252.065 21.5508C254.615 19.8893 257.379 19.0586 260.358 19.0586ZM302.428 43.8945C302.428 48.6497 303.202 52.2448 304.749 54.6797C306.324 57.1146 308.874 58.332 312.397 58.332C315.892 58.332 318.398 57.1289 319.917 54.7227C321.463 52.2878 322.237 48.6784 322.237 43.8945C322.237 39.1393 321.463 35.5729 319.917 33.1953C318.37 30.8177 315.835 29.6289 312.311 29.6289C308.816 29.6289 306.295 30.8177 304.749 33.1953C303.202 35.5443 302.428 39.1107 302.428 43.8945ZM335.643 43.8945C335.643 51.7148 333.581 57.8307 329.456 62.2422C325.331 66.6536 319.587 68.8594 312.225 68.8594C307.613 68.8594 303.545 67.8568 300.022 65.8516C296.499 63.8177 293.792 60.9102 291.901 57.1289C290.01 53.3477 289.065 48.9362 289.065 43.8945C289.065 36.0456 291.113 29.944 295.21 25.5898C299.306 21.2357 305.064 19.0586 312.483 19.0586C317.095 19.0586 321.163 20.0612 324.686 22.0664C328.21 24.0716 330.917 26.9505 332.807 30.7031C334.698 34.4557 335.643 38.8529 335.643 43.8945ZM380.162 68.8594C374.519 68.8594 370.079 66.668 366.842 62.2852C363.634 57.9023 362.029 51.8294 362.029 44.0664C362.029 36.1888 363.662 30.0586 366.928 25.6758C370.222 21.2643 374.748 19.0586 380.506 19.0586C386.55 19.0586 391.162 21.4076 394.342 26.1055H394.772C394.113 22.5247 393.783 19.3307 393.783 16.5234V1.14062H406.932V68H396.877L394.342 61.7695H393.783C390.804 66.4961 386.264 68.8594 380.162 68.8594ZM384.76 58.418C388.111 58.418 390.561 57.444 392.107 55.4961C393.683 53.5482 394.542 50.2396 394.686 45.5703V44.1523C394.686 38.9961 393.884 35.3008 392.279 33.0664C390.704 30.832 388.126 29.7148 384.545 29.7148C381.623 29.7148 379.346 30.9609 377.713 33.4531C376.109 35.9167 375.307 39.5117 375.307 44.2383C375.307 48.9648 376.123 52.5169 377.756 54.8945C379.389 57.2435 381.723 58.418 384.76 58.418ZM465.931 19.0586C467.707 19.0586 469.183 19.1875 470.357 19.4453L469.369 31.7344C468.309 31.4479 467.02 31.3047 465.502 31.3047C461.319 31.3047 458.054 32.3789 455.705 34.5273C453.384 36.6758 452.224 39.6836 452.224 43.5508V68H439.119V19.9609H449.045L450.978 28.0391H451.623C453.112 25.3464 455.117 23.1836 457.638 21.5508C460.188 19.8893 462.952 19.0586 465.931 19.0586ZM497.001 7.54297C497.001 3.27474 499.379 1.14062 504.134 1.14062C508.889 1.14062 511.267 3.27474 511.267 7.54297C511.267 9.57682 510.665 11.1667 509.462 12.3125C508.288 13.4297 506.512 13.9883 504.134 13.9883C499.379 13.9883 497.001 11.8398 497.001 7.54297ZM510.665 68H497.56V19.9609H510.665V68ZM584.747 19.9609V26.6211L577.227 28.5547C578.602 30.7031 579.29 33.1094 579.29 35.7734C579.29 40.9297 577.485 44.9544 573.876 47.8477C570.295 50.7122 565.311 52.1445 558.922 52.1445L556.559 52.0156L554.626 51.8008C553.279 52.832 552.606 53.9779 552.606 55.2383C552.606 57.1289 555.012 58.0742 559.825 58.0742H567.989C573.26 58.0742 577.27 59.2057 580.02 61.4688C582.799 63.7318 584.188 67.0547 584.188 71.4375C584.188 77.0521 581.839 81.4062 577.141 84.5C572.472 87.5938 565.755 89.1406 556.989 89.1406C550.286 89.1406 545.158 87.9661 541.606 85.6172C538.083 83.2969 536.321 80.0312 536.321 75.8203C536.321 72.9271 537.223 70.5065 539.028 68.5586C540.833 66.6107 543.482 65.2214 546.977 64.3906C545.631 63.8177 544.456 62.8867 543.454 61.5977C542.451 60.2799 541.95 58.8906 541.95 57.4297C541.95 55.5964 542.48 54.0781 543.54 52.875C544.6 51.6432 546.132 50.4401 548.137 49.2656C545.616 48.1771 543.611 46.4297 542.122 44.0234C540.661 41.6172 539.93 38.7812 539.93 35.5156C539.93 30.2734 541.635 26.2201 545.044 23.3555C548.452 20.4909 553.322 19.0586 559.653 19.0586C560.999 19.0586 562.589 19.1875 564.422 19.4453C566.284 19.6745 567.473 19.8464 567.989 19.9609H584.747ZM547.665 74.7891C547.665 76.5938 548.524 78.0117 550.243 79.043C551.99 80.0742 554.425 80.5898 557.547 80.5898C562.245 80.5898 565.926 79.9453 568.59 78.6562C571.255 77.3672 572.587 75.6055 572.587 73.3711C572.587 71.5664 571.799 70.3203 570.223 69.6328C568.648 68.9453 566.213 68.6016 562.919 68.6016H556.13C553.723 68.6016 551.704 69.1602 550.071 70.2773C548.467 71.4232 547.665 72.9271 547.665 74.7891ZM552.434 35.6875C552.434 38.2943 553.021 40.3568 554.196 41.875C555.399 43.3932 557.218 44.1523 559.653 44.1523C562.116 44.1523 563.921 43.3932 565.067 41.875C566.213 40.3568 566.786 38.2943 566.786 35.6875C566.786 29.901 564.408 27.0078 559.653 27.0078C554.84 27.0078 552.434 29.901 552.434 35.6875ZM621.617 43.8945C621.617 48.6497 622.391 52.2448 623.938 54.6797C625.513 57.1146 628.063 58.332 631.586 58.332C635.081 58.332 637.587 57.1289 639.106 54.7227C640.652 52.2878 641.426 48.6784 641.426 43.8945C641.426 39.1393 640.652 35.5729 639.106 33.1953C637.559 30.8177 635.024 29.6289 631.5 29.6289C628.005 29.6289 625.484 30.8177 623.938 33.1953C622.391 35.5443 621.617 39.1107 621.617 43.8945ZM654.832 43.8945C654.832 51.7148 652.77 57.8307 648.645 62.2422C644.52 66.6536 638.776 68.8594 631.414 68.8594C626.802 68.8594 622.734 67.8568 619.211 65.8516C615.688 63.8177 612.981 60.9102 611.09 57.1289C609.199 53.3477 608.254 48.9362 608.254 43.8945C608.254 36.0456 610.302 29.944 614.399 25.5898C618.495 21.2357 624.253 19.0586 631.672 19.0586C636.284 19.0586 640.352 20.0612 643.875 22.0664C647.399 24.0716 650.106 26.9505 651.996 30.7031C653.887 34.4557 654.832 38.8529 654.832 43.8945Z" fill="black" fill-opacity="0.5"/>
</svg>
