<?xml version="1.0" encoding="UTF-8"?>
<svg width="120px" height="120px" viewBox="0 0 120 120" version="1.1" xmlns="http://www.w3.org/2000/svg" xmlns:xlink="http://www.w3.org/1999/xlink">
    <title>4. Icons/1. Decorative/monitor</title>
    <g id="4.-Icons/1.-Decorative/monitor" stroke="none" stroke-width="1" fill="none" fill-rule="evenodd">
        <path d="M14.199219,10.099609 C10.199219,10.199609 7,13.400781 7,17.300781 L7,88.099609 C7,92.099609 10.199219,95.30078 14.199219,95.30078 L44.5,95.30078 C44.5,102.00078 43.799609,102.79961 40.099609,104.599609 L38,104.599609 C36.3,104.599609 35,105.89961 35,107.599609 C35,109.29961 36.3,110.599609 38,110.599609 L40.800781,110.599609 L79.099609,110.599609 L82,110.599609 C83.7,110.599609 85,109.29961 85,107.599609 C85,105.89961 83.7,104.599609 82,104.599609 L79.900391,104.599609 C76.300391,102.79961 75.5,101.90078 75.5,95.30078 L105.80078,95.30078 C109.80078,95.30078 113,92.099609 113,88.099609 L113,17.300781 C113,13.300781 109.80078,10.099609 105.80078,10.099609 L14.199219,10.099609 Z M14.199219,16.099609 L105.90039,16.099609 C106.50039,16.099609 107.09961,16.600781 107.09961,17.300781 L107.09961,72.599609 L13,72.599609 L13,17.300781 C13,16.700781 13.499219,16.099609 14.199219,16.099609 Z M13,78.699219 L107,78.699219 L107,88.199219 C107,88.799219 106.50078,89.400391 105.80078,89.400391 L14.199219,89.400391 C13.599219,89.400391 13,88.899219 13,88.199219 L13,78.699219 Z M60,81 C58.3431458,81 57,82.3431458 57,84 C57,85.6568542 58.3431458,87 60,87 C61.6568542,87 63,85.6568542 63,84 C63,82.3431458 61.6568542,81 60,81 Z M50.5,100.30078 L69.5,100.30078 L69.5,104.30078 L50.5,104.30078 L50.5,100.30078 Z" id="icon" fill="#151515"></path>
    </g>
</svg>