<?xml version="1.0" encoding="UTF-8"?>
<svg width="120px" height="120px" viewBox="0 0 120 120" version="1.1" xmlns="http://www.w3.org/2000/svg" xmlns:xlink="http://www.w3.org/1999/xlink">
    <title>4. Icons/1. Decorative/pen</title>
    <g id="4.-Icons/1.-Decorative/pen" stroke="none" stroke-width="1" fill="none" fill-rule="evenodd">
        <path d="M73.5625,8.199219 C72.8,8.199219 72.05,8.499609 71.5,9.099609 C70.3,10.299609 70.3,12.200781 71.5,13.300781 L77.800781,19.599609 C75.100781,20.699609 70.999219,22.1 66.199219,22.5 C59.499219,23.1 50.700391,21.6 47.400391,21 C45.700391,20.7 44.6,20.499609 43.5,21.599609 C43.2,21.899609 42.900781,22.299219 42.800781,22.699219 L28,65.699219 C27.5,67.299219 28.300391,69 29.900391,69.5 C30.200391,69.6 30.600391,69.699219 30.900391,69.699219 C32.100391,69.699219 33.299219,68.899219 33.699219,67.699219 L47.699219,27.099609 C51.799219,27.799609 60.100781,29.1 66.800781,28.5 C72.000781,28 77.300391,26.499609 82.400391,24.099609 L89,30.699219 C86.7,35.099219 85.300391,39.800781 84.900391,44.800781 C84.200391,52.000781 85.499219,61.2 86.199219,65.5 L33.400391,83.699219 L62.300781,54.800781 C63.500781,53.600781 63.500781,51.699609 62.300781,50.599609 C61.100781,49.399609 59.199609,49.399609 58.099609,50.599609 L20.199219,88.5 C19.399219,89.2 19,90.09961 19,91.09961 C19,92.79961 20.4,94.29961 22,94.09961 C22.4,94.09961 22.7,94.00039 23,93.90039 L90.40039,70.5 C90.80039,70.4 91.2,70.100781 91.5,69.800781 C92.6,68.700781 92.49961,67.699219 92.09961,65.699219 C91.49961,62.099219 90.09922,52.6 90.69922,45.5 C90.99922,41.9 91.90078,38.500781 93.30078,35.300781 L99.69922,41.699219 C100.19922,41.999219 100.89922,42.300781 101.69922,42.300781 C102.49922,42.300781 103.20078,42.000391 103.80078,41.400391 C105.00078,40.300391 105.00078,38.400781 103.80078,37.300781 L75.699219,9.099609 C75.099219,8.499609 74.325,8.199219 73.5625,8.199219 Z M68,42 C66.3431458,42 65,43.3431458 65,45 C65,46.6568542 66.3431458,48 68,48 C69.6568542,48 71,46.6568542 71,45 C71,43.3431458 69.6568542,42 68,42 Z M19,105 C17.3,105 16,106.3 16,108 C16,109.7 17.3,111 19,111 L79,111 C80.7,111 82,109.7 82,108 C82,106.3 80.7,105 79,105 L19,105 Z M94,105 C92.3431458,105 91,106.343146 91,108 C91,109.656854 92.3431458,111 94,111 C95.6568542,111 97,109.656854 97,108 C97,106.343146 95.6568542,105 94,105 L94,105 Z" id="icon" fill="#151515"></path>
    </g>
</svg>